<?xml version="1.0" encoding="UTF-8"?>
<!-- Generator: Adobe Illustrator 27.2.0, SVG Export Plug-In . SVG Version: 6.00 Build 0)  -->
<svg version="1.1" id="Слой_1" xmlns="http://www.w3.org/2000/svg" xmlns:xlink="http://www.w3.org/1999/xlink" x="0px" y="0px" viewBox="0 0 219.74 80.69" style="enable-background:new 0 0 219.74 80.69;" xml:space="preserve">
<style type="text/css">
	
		.st0{clip-path:url(#SVGID_00000142142074318680725960000006256564411660619706_);fill:url(#SVGID_00000038413458480376371200000015209169255010967723_);}
	.st1{fill:#FFFFFF;}
	
		.st2{clip-path:url(#SVGID_00000090989823354918467690000002734780597852209046_);fill:url(#SVGID_00000131333254030127327250000016360117052526417302_);}
</style>
<g>
	<g>
		<defs>
			<polygon id="SVGID_1_" points="156.98,54.58 0,54.58 25.83,0 182.81,0    "/>
		</defs>
		<clipPath id="SVGID_00000006700429323716083230000014613936822782592959_">
			<use xlink:href="#SVGID_1_" style="overflow:visible;"/>
		</clipPath>
		
			<linearGradient id="SVGID_00000148631565726892171150000006601480562852643252_" gradientUnits="userSpaceOnUse" x1="-31.8703" y1="187.5282" x2="-30.8703" y2="187.5282" gradientTransform="matrix(172.9742 0 31.5754 -175.2178 -403.6117 32885.5664)">
			<stop offset="0" style="stop-color:#1D306F"/>
			<stop offset="0.4949" style="stop-color:#0071AA"/>
			<stop offset="1" style="stop-color:#133A6D"/>
		</linearGradient>
		
			<polygon style="clip-path:url(#SVGID_00000006700429323716083230000014613936822782592959_);fill:url(#SVGID_00000148631565726892171150000006601480562852643252_);" points="    0,0 192.64,0 182.81,54.58 -9.83,54.58   "/>
	</g>
	<path class="st1" d="M34.99,13.56h6.08c1.38,0,2.59,0.31,3.65,0.93c1.05,0.62,1.86,1.46,2.41,2.51c0.55,1.05,0.83,2.22,0.83,3.49   v4.46c0,1.27-0.28,2.43-0.83,3.49c-0.55,1.05-1.36,1.89-2.41,2.51c-1.05,0.62-2.27,0.93-3.65,0.93h-1.22v9.73h-4.86V13.56z    M40.94,27.26c0.73,0,1.27-0.22,1.62-0.67c0.35-0.45,0.53-1.03,0.53-1.76v-4.22c0-0.73-0.18-1.32-0.53-1.76   c-0.35-0.45-0.89-0.67-1.62-0.67h-1.09v9.08H40.94z M50.99,21.22c0-1.51,0.3-2.88,0.91-4.09c0.61-1.22,1.47-2.17,2.57-2.86   c1.11-0.69,2.38-1.03,3.81-1.03c1.43,0,2.7,0.34,3.81,1.03c1.11,0.69,1.97,1.64,2.57,2.86c0.61,1.22,0.91,2.58,0.91,4.09v12.73   c0,1.51-0.3,2.88-0.91,4.09c-0.61,1.22-1.47,2.17-2.57,2.86c-1.11,0.69-2.38,1.03-3.81,1.03c-1.43,0-2.7-0.34-3.81-1.03   c-1.11-0.69-1.97-1.64-2.57-2.86c-0.61-1.22-0.91-2.58-0.91-4.09V21.22z M55.86,33.83c0,1.05,0.22,1.9,0.65,2.53   c0.43,0.64,1.03,0.95,1.78,0.95c0.78,0,1.38-0.32,1.8-0.95c0.42-0.63,0.63-1.48,0.63-2.53V21.34c0-1.05-0.21-1.9-0.63-2.53   c-0.42-0.63-1.02-0.95-1.8-0.95c-0.76,0-1.35,0.32-1.78,0.95c-0.43,0.64-0.65,1.48-0.65,2.53V33.83L55.86,33.83z M77.99,21.34   c0-1.11-0.17-1.97-0.51-2.57c-0.34-0.61-0.84-0.91-1.52-0.91c-0.7,0-1.24,0.31-1.6,0.93c-0.36,0.62-0.55,1.47-0.55,2.55v12.48   c0,1.08,0.18,1.93,0.55,2.55c0.36,0.62,0.9,0.93,1.6,0.93c0.7,0,1.24-0.31,1.6-0.93c0.36-0.62,0.55-1.47,0.55-2.55v-1.95h4.86v2.07   c0,1.54-0.29,2.91-0.87,4.11c-0.58,1.2-1.4,2.15-2.45,2.84s-2.28,1.03-3.69,1.03c-1.38,0-2.6-0.34-3.67-1.03   c-1.07-0.69-1.89-1.63-2.47-2.84c-0.58-1.2-0.87-2.57-0.87-4.11V21.22c0-1.54,0.29-2.91,0.87-4.11c0.58-1.2,1.4-2.15,2.47-2.84   c1.07-0.69,2.29-1.03,3.67-1.03c1.38,0,2.59,0.35,3.63,1.05c1.04,0.7,1.84,1.66,2.41,2.86c0.57,1.2,0.85,2.56,0.85,4.07v1.66h-4.86   V21.34z M94.69,21.34c0-1.11-0.17-1.97-0.51-2.57c-0.34-0.61-0.84-0.91-1.52-0.91c-0.7,0-1.24,0.31-1.6,0.93   c-0.36,0.62-0.55,1.47-0.55,2.55v12.48c0,1.08,0.18,1.93,0.55,2.55c0.36,0.62,0.9,0.93,1.6,0.93c0.7,0,1.24-0.31,1.6-0.93   c0.36-0.62,0.55-1.47,0.55-2.55v-1.95h4.86v2.07c0,1.54-0.29,2.91-0.87,4.11c-0.58,1.2-1.4,2.15-2.45,2.84s-2.28,1.03-3.69,1.03   c-1.38,0-2.6-0.34-3.67-1.03c-1.07-0.69-1.89-1.63-2.47-2.84c-0.58-1.2-0.87-2.57-0.87-4.11V21.22c0-1.54,0.29-2.91,0.87-4.11   c0.58-1.2,1.4-2.15,2.47-2.84c1.07-0.69,2.29-1.03,3.67-1.03c1.38,0,2.59,0.35,3.63,1.05c1.04,0.7,1.84,1.66,2.41,2.86   c0.57,1.2,0.85,2.56,0.85,4.07v1.66h-4.86V21.34z M117.46,13.56v28.05h-4.86V27.26l-5.23,14.35h-4.34V13.56h4.86v14.47l5.27-14.47   H117.46z M134.73,13.56v28.05h-4.86V31.48h-0.65l-3.4,10.13h-5.39l4.5-10.98c-1.05-0.59-1.88-1.43-2.47-2.51   c-0.59-1.08-0.89-2.27-0.89-3.57v-4.05c0-1.27,0.28-2.43,0.85-3.49s1.37-1.89,2.41-2.51c1.04-0.62,2.25-0.93,3.63-0.93H134.73z    M129.87,18.18h-1.3c-0.7,0-1.24,0.22-1.6,0.67c-0.36,0.45-0.55,1.03-0.55,1.76v3.81c0,0.73,0.18,1.32,0.55,1.76   c0.36,0.45,0.9,0.67,1.6,0.67h1.3V18.18z M162.49,27.1v4.62h-17.18V27.1H162.49z"/>
	<g>
		<defs>
			<polygon id="SVGID_00000070109656596360946530000000511397458967172525_" points="208.64,80.69 39.7,80.69 50.8,54.61      219.74,54.61    "/>
		</defs>
		<clipPath id="SVGID_00000168095862876624489410000011942854814886275489_">
			<use xlink:href="#SVGID_00000070109656596360946530000000511397458967172525_" style="overflow:visible;"/>
		</clipPath>
		
			<linearGradient id="SVGID_00000094599809890949535020000008259896237070713263_" gradientUnits="userSpaceOnUse" x1="-31.8698" y1="187.5281" x2="-30.8698" y2="187.5281" gradientTransform="matrix(177.2375 0 19.0039 -176.9899 2125.8523 33258.2344)">
			<stop offset="0" style="stop-color:#AF100E"/>
			<stop offset="1.435320e-03" style="stop-color:#AF100E"/>
			<stop offset="0.1366" style="stop-color:#B70E12"/>
			<stop offset="0.3501" style="stop-color:#CE091E"/>
			<stop offset="0.5067" style="stop-color:#E30429"/>
			<stop offset="1" style="stop-color:#E30233"/>
		</linearGradient>
		
			<polygon style="clip-path:url(#SVGID_00000168095862876624489410000011942854814886275489_);fill:url(#SVGID_00000094599809890949535020000008259896237070713263_);" points="    39.7,54.61 222.53,54.61 219.73,80.69 36.9,80.69   "/>
	</g>
	<path class="st1" d="M57.98,64.06c0-0.57-0.09-1.02-0.26-1.34c-0.18-0.32-0.44-0.47-0.79-0.47c-0.36,0-0.64,0.16-0.83,0.48   c-0.19,0.32-0.28,0.76-0.28,1.33v6.48c0,0.56,0.09,1,0.28,1.33c0.19,0.32,0.47,0.48,0.83,0.48c0.36,0,0.64-0.16,0.83-0.48   c0.19-0.32,0.28-0.76,0.28-1.33v-1.01h2.52v1.07c0,0.8-0.15,1.51-0.45,2.13c-0.3,0.62-0.73,1.11-1.27,1.47   c-0.55,0.36-1.19,0.54-1.91,0.54c-0.72,0-1.35-0.18-1.9-0.54c-0.55-0.36-0.98-0.85-1.28-1.47c-0.3-0.62-0.45-1.34-0.45-2.13V64   c0-0.8,0.15-1.51,0.45-2.13c0.3-0.62,0.73-1.11,1.28-1.47c0.55-0.36,1.19-0.54,1.9-0.54s1.34,0.18,1.88,0.55   c0.54,0.36,0.96,0.86,1.25,1.48c0.29,0.62,0.44,1.33,0.44,2.11v0.86h-2.52V64.06z M61.18,60.02h7.36v2.4h-2.42v12.16H63.6V62.42   h-2.42V60.02z M70.01,60.02h3.15c0.72,0,1.35,0.16,1.89,0.48c0.55,0.32,0.96,0.76,1.25,1.3c0.29,0.55,0.43,1.15,0.43,1.81v2.31   c0,0.66-0.14,1.26-0.43,1.81c-0.29,0.55-0.7,0.98-1.25,1.3c-0.55,0.32-1.18,0.48-1.89,0.48h-0.63v5.05h-2.52V60.02z M73.1,67.13   c0.38,0,0.66-0.12,0.84-0.35c0.18-0.23,0.27-0.54,0.27-0.91v-2.19c0-0.38-0.09-0.68-0.27-0.91c-0.18-0.23-0.46-0.35-0.84-0.35   h-0.57v4.71H73.1z M79.85,60.02h2.21l3.05,14.55h-2.63l-0.53-3.07h-2l-0.53,3.07h-2.65L79.85,60.02z M81.56,69.11l-0.61-3.6   l-0.59,3.6H81.56z M86.29,60.02h2.52v5.76h2.15v-5.76h2.52v14.55h-2.52v-6.39h-2.15v6.39h-2.52V60.02z M97.73,60.02h2.21   l3.05,14.55h-2.63l-0.53-3.07h-2l-0.53,3.07h-2.65L97.73,60.02z M99.44,69.11l-0.61-3.6l-0.59,3.6H99.44z M117.92,72.18v4.48h-2.52   v-2.08h-4.37v2.08h-2.52v-4.48h0.93c0.17-0.27,0.31-0.76,0.42-1.47c0.18-1.29,0.35-2.97,0.5-5.03c0.15-2.06,0.24-3.95,0.25-5.66   h6.23v12.16H117.92z M114.31,72.18v-9.76h-1.43c-0.08,1.6-0.19,3.21-0.32,4.83c-0.13,1.62-0.26,2.91-0.4,3.88   c-0.03,0.29-0.11,0.65-0.25,1.05H114.31z M118.91,64c0-0.79,0.16-1.49,0.47-2.12c0.32-0.63,0.76-1.13,1.34-1.48   c0.57-0.36,1.23-0.54,1.98-0.54c0.74,0,1.4,0.18,1.98,0.54c0.57,0.36,1.02,0.85,1.34,1.48c0.32,0.63,0.47,1.34,0.47,2.12v6.6   c0,0.79-0.16,1.49-0.47,2.12c-0.32,0.63-0.76,1.13-1.34,1.48c-0.58,0.36-1.23,0.54-1.98,0.54c-0.74,0-1.4-0.18-1.98-0.54   c-0.58-0.36-1.02-0.85-1.34-1.48c-0.32-0.63-0.47-1.34-0.47-2.12V64z M121.44,70.54c0,0.55,0.11,0.99,0.34,1.31   c0.22,0.33,0.53,0.49,0.93,0.49c0.41,0,0.72-0.16,0.94-0.49c0.22-0.33,0.33-0.77,0.33-1.31v-6.48c0-0.55-0.11-0.98-0.33-1.31   c-0.22-0.33-0.53-0.49-0.94-0.49c-0.39,0-0.7,0.16-0.93,0.49c-0.22,0.33-0.34,0.77-0.34,1.31V70.54L121.44,70.54z M132.92,64.06   c0-0.57-0.09-1.02-0.26-1.34c-0.18-0.32-0.44-0.47-0.79-0.47c-0.36,0-0.64,0.16-0.83,0.48c-0.19,0.32-0.28,0.76-0.28,1.33v6.48   c0,0.56,0.09,1,0.28,1.33c0.19,0.32,0.47,0.48,0.83,0.48c0.36,0,0.64-0.16,0.83-0.48c0.19-0.32,0.28-0.76,0.28-1.33v-1.01h2.52   v1.07c0,0.8-0.15,1.51-0.45,2.13c-0.3,0.62-0.73,1.11-1.27,1.47c-0.55,0.36-1.19,0.54-1.91,0.54c-0.72,0-1.35-0.18-1.9-0.54   c-0.55-0.36-0.98-0.85-1.28-1.47c-0.3-0.62-0.45-1.34-0.45-2.13V64c0-0.8,0.15-1.51,0.45-2.13c0.3-0.62,0.73-1.11,1.28-1.47   c0.55-0.36,1.19-0.54,1.9-0.54s1.34,0.18,1.88,0.55c0.54,0.36,0.96,0.86,1.25,1.48c0.29,0.62,0.44,1.33,0.44,2.11v0.86h-2.52V64.06   z M136.12,60.02h7.36v2.4h-2.42v12.16h-2.52V62.42h-2.42V60.02z M152.44,60.02v14.55h-2.52v-7.45l-2.71,7.45h-2.25V60.02h2.52v7.51   l2.73-7.51H152.44z M163.02,74.58l-1.87-6.56h-0.17v6.56h-2.52v-6.56h-0.17l-1.89,6.56h-2.8l2.5-7.78l-2.06-6.77h2.69l1.49,5.59   h0.23v-5.59h2.52v5.59h0.21l1.49-5.59h2.69l-2.06,6.77l2.5,7.78H163.02z M166.95,60.02h6.31v2.4h-3.79v3.37h2.94v2.4h-2.94v4h3.89   v2.4h-6.42V60.02z M175.34,60.02h2.52v5.76h2.15v-5.76h2.52v14.55h-2.52v-6.39h-2.15v6.39h-2.52V60.02z M192.49,60.02v14.55h-2.52   v-7.45l-2.71,7.45H185V60.02h2.52v7.51l2.73-7.51H192.49z M202.44,60.02v14.55h-2.52v-7.45l-2.71,7.45h-2.25V60.02h2.52v7.51   l2.73-7.51H202.44z M198.69,59.2c-0.86,0-1.54-0.25-2.05-0.76c-0.51-0.5-0.77-1.18-0.77-2.04h2.15c0,0.27,0.06,0.48,0.19,0.64   c0.13,0.16,0.29,0.24,0.48,0.24c0.2,0,0.36-0.08,0.48-0.24c0.13-0.16,0.19-0.37,0.19-0.64h2.15c0,0.86-0.26,1.54-0.77,2.04   C200.23,58.95,199.55,59.2,198.69,59.2L198.69,59.2z"/>
</g>
</svg>